#N canvas 0 45 1275 702 10;
#X obj 684 202 tgl 15 0 empty empty empty 17 7 0 10 -262144 -1 -1 0
1;
#X obj 683 254 metro 1700;
#X obj 683 284 f;
#X obj 712 289 - 1;
#X obj 683 314 mod 3;
#X obj 683 339 + 1, f 4;
#X floatatom 683 365 5 0 0 0 - - -;
#X msg 721 365 open \$1.wav \, 1;
#X obj 824 365 readsf~;
#X obj 882 365 dac~;
#X obj 902 184 bng 15 250 50 0 empty empty empty 17 7 0 10 -262144
-1 -1;
#X obj 944 319 readsf~;
#X obj 817 336 dac~;
#X obj 816 263 delay 1700;
#X obj 944 262 delay 3400;
#X obj 761 389 bng 15 250 50 0 empty empty empty 17 7 0 10 -262144
-1 -1;
#X obj 763 469 readsf~;
#X obj 763 496 dac~;
#X obj 634 374 sel 1;
#X obj 1138 288 bng 15 250 50 0 empty empty empty 17 7 0 10 -262144
-1 -1;
#X obj 1122 304 bng 15 250 50 0 empty empty empty 17 7 0 10 -262144
-1 -1;
#X obj 1154 304 bng 15 250 50 0 empty empty empty 17 7 0 10 -262144
-1 -1;
#X obj 1138 319 bng 15 250 50 0 empty empty empty 17 7 0 10 -262144
-1 -1;
#X msg 1183 277 open north.wav \, 1;
#X msg 1185 301 open east.wav \, 1;
#X msg 1139 346 open south.wav \, 1;
#X msg 1004 306 open west.wav \, 1;
#X obj 1185 388 readsf~;
#X obj 1174 425 dac~;
#X obj 890 459 bng 15 250 50 0 empty empty empty 17 7 0 10 -262144
-1 -1;
#X floatatom 890 504 5 0 0 0 - - -;
#X obj 890 479 random 4;
#X obj 1083 388 f;
#X obj 1049 442 print new loop;
#X obj 1119 390 + 1;
#X msg 1081 506 open encounter.wav \, 1;
#X obj 1081 531 readsf~;
#X obj 1081 558 dac~;
#X obj 1081 474 delay 20000;
#X msg 630 462 open begin.wav \, 1;
#X obj 632 409 delay 1500;
#X msg 241 442 open encounter.wav \, 1;
#X obj 763 412 random 20;
#X obj 763 432 + 1;
#X msg 807 442 open \$1.wav \, 1;
#X obj 711 636 soundfiler;
#X msg 681 562 read ./3.wav array3;
#X obj 816 306 readsf~;
#X text 772 307 2.wav;
#X msg 816 285 1;
#X obj 19 172 loadbang;
#X msg 20 207 open 2.wav;
#X obj 31 80 s init;
#X obj 31 19 bng 50 250 50 0 empty empty empty 17 7 0 10 -262144 -1
-1;
#X obj 73 172 r init;
#X obj 20 239 s open2;
#X obj 763 286 r open2;
#X obj 137 175 loadbang;
#X obj 191 175 r init;
#X obj 136 242 s open1;
#X msg 138 210 open 1.wav;
#X obj 943 343 dac~;
#X msg 944 294 1;
#X obj 895 290 r open1;
#X msg 1052 256 1;
#X obj 1052 277 readsf~;
#X obj 1053 300 dac~;
#X obj 21 278 loadbang;
#X obj 75 278 r init;
#X msg 22 313 open 3.wav;
#X obj 22 345 s open3;
#X obj 1000 281 r open3;
#X obj 464 76 bng 35 250 50 0 empty empty empty 17 7 0 10 -262144 -1
-1;
#X obj 472 123 s N;
#X obj 465 147 bng 35 250 50 0 empty empty empty 17 7 0 10 -262144
-1 -1;
#X obj 473 123 s S;
#X obj 429 110 bng 35 250 50 0 empty empty empty 17 7 0 10 -262144
-1 -1;
#X obj 470 124 s W, f 4;
#X obj 500 111 bng 35 250 50 0 empty empty empty 17 7 0 10 -262144
-1 -1;
#X obj 474 123 s E;
#X msg 15 445 open north.wav \, 1;
#X obj 15 466 readsf~;
#X obj 15 487 dac~;
#X obj 15 392 r N;
#X obj 48 406 delay 2000;
#X obj 48 427 s gameLoop;
#X obj 375 264 r gameLoop;
#X obj 373 241 print loop;
#X obj 18 589 readsf~;
#X obj 18 610 dac~;
#X obj 51 529 delay 2000;
#X obj 51 550 s gameLoop;
#X obj 18 515 r S;
#X msg 18 568 open south.wav \, 1;
#X obj 21 713 readsf~;
#X obj 21 734 dac~;
#X obj 54 653 delay 2000;
#X obj 54 674 s gameLoop;
#X obj 21 639 r E;
#X msg 21 692 open east.wav \, 1;
#X obj 139 712 readsf~;
#X obj 139 733 dac~;
#X obj 172 652 delay 2000;
#X obj 172 673 s gameLoop;
#X obj 139 638 r W;
#X msg 139 691 open west.wav \, 1;
#X text 425 49 choose a direction;
#X obj 394 498 readsf~;
#X obj 394 518 dac~;
#X obj 393 435 random 20;
#X obj 393 458 + 1;
#X msg 393 480 open \$1.wav \, 1;
#X obj 426 337 s getRandomNumber;
#X obj 393 415 r getRandomNumber;
#X obj 241 463 readsf~;
#X obj 241 484 dac~;
#X obj 241 416 r encounter;
#X obj 315 217 s encounter;
#X obj 330 345 s with;
#X obj 241 566 readsf~;
#X obj 241 587 dac~;
#X obj 241 519 r with;
#X msg 241 545 open with.wav \, 1;
#X obj 285 286 s getEnemy;
#X obj 393 543 r getEnemy;
#X floatatom 393 595 5 0 0 0 - - -;
#X obj 393 570 random 4;
#X obj 289 617 sel 0;
#X obj 288 660 readsf~;
#X obj 288 681 dac~;
#X msg 288 639 open clown.wav \, 1;
#X obj 476 656 readsf~;
#X obj 476 677 dac~;
#X obj 477 613 sel 1;
#X msg 476 635 open demon.wav \, 1;
#X obj 329 734 readsf~;
#X obj 329 755 dac~;
#X obj 330 691 sel 2;
#X msg 329 713 open goblin.wav \, 1;
#X obj 462 744 readsf~;
#X obj 462 765 dac~;
#X obj 463 701 sel 3;
#X msg 462 723 open wolf.wav \, 1;
#X obj 446 286 s hp;
#X obj 599 714 readsf~;
#X obj 599 735 dac~;
#X obj 599 667 r hp;
#X msg 599 693 open hp.wav \, 1;
#X obj 285 262 delay 1600;
#X obj 330 324 delay 3000;
#X obj 426 313 delay 4000;
#X obj 446 265 delay 5000;
#X text 647 31 choose an action;
#X obj 594 73 bng 35 250 50 0 empty empty empty 17 7 0 10 -262144 -1
-1;
#X text 577 54 start Loop;
#X obj 594 113 s countdown;
#X obj 684 180 bng 15 250 50 0 empty empty empty 17 7 0 10 -262144
-1 -1;
#X obj 686 156 r countdown;
#X text 688 56 flee;
#X obj 685 71 bng 35 250 50 0 empty empty empty 17 7 0 10 -262144 -1
-1;
#X obj 685 111 s flee;
#X obj 709 722 readsf~;
#X obj 709 743 dac~;
#X obj 709 675 r flee;
#X msg 709 701 open evilClown.wav \, 1;
#X text 755 54 attack;
#X obj 757 71 bng 35 250 50 0 empty empty empty 17 7 0 10 -262144 -1
-1;
#X obj 757 111 s attack;
#X obj 925 568 r attack;
#X obj 861 715 readsf~;
#X obj 861 736 dac~;
#X obj 861 668 r attackFor;
#X obj 836 626 s attackFor;
#X msg 861 694 open attacked.wav \, 1;
#X obj 928 644 s getRandomNumber;
#X obj 928 623 delay 1800;
#X obj 1026 612 delay 3000;
#X obj 1044 638 s damage;
#X obj 1014 725 readsf~;
#X obj 1014 746 dac~;
#X obj 1014 678 r damage;
#X msg 1014 704 open damage.wav \, 1;
#X obj 1114 625 s killed;
#X obj 1151 717 readsf~;
#X obj 1151 738 dac~;
#X obj 1151 670 r killed;
#X msg 1151 696 open killed.wav \, 1;
#X obj 1114 603 delay 4500;
#X obj 979 494 delay 6000;
#X obj 979 515 s getEnemy;
#X obj 854 536 delay 7500;
#X obj 854 557 s gained;
#X obj 965 161 readsf~;
#X obj 965 182 dac~;
#X obj 965 114 r gained;
#X msg 965 140 open gaining.wav \, 1;
#X obj 998 550 delay 9000;
#X obj 998 571 s getRandomNumber;
#X obj 755 591 s xp;
#X obj 1107 165 readsf~;
#X obj 1107 186 dac~;
#X obj 1107 118 r xp;
#X msg 1107 145 open xp.wav \, 1;
#X obj 787 586 delay 10000;
#X connect 0 0 1 0;
#X connect 1 0 2 0;
#X connect 2 0 3 0;
#X connect 2 0 4 0;
#X connect 3 0 2 1;
#X connect 4 0 5 0;
#X connect 5 0 6 0;
#X connect 6 0 7 0;
#X connect 6 0 18 0;
#X connect 7 0 8 0;
#X connect 8 0 9 0;
#X connect 10 0 64 0;
#X connect 10 0 13 0;
#X connect 10 0 14 0;
#X connect 11 0 61 0;
#X connect 13 0 49 0;
#X connect 14 0 62 0;
#X connect 15 0 42 0;
#X connect 16 0 17 0;
#X connect 18 0 0 0;
#X connect 18 0 40 0;
#X connect 19 0 23 0;
#X connect 19 0 32 0;
#X connect 20 0 26 0;
#X connect 20 0 32 0;
#X connect 21 0 24 0;
#X connect 21 0 32 0;
#X connect 22 0 25 0;
#X connect 22 0 32 0;
#X connect 23 0 27 0;
#X connect 24 0 27 0;
#X connect 25 0 27 0;
#X connect 26 0 27 0;
#X connect 27 0 28 0;
#X connect 29 0 31 0;
#X connect 31 0 30 0;
#X connect 32 0 33 0;
#X connect 32 0 34 0;
#X connect 32 0 38 0;
#X connect 34 0 32 1;
#X connect 35 0 36 0;
#X connect 36 0 37 0;
#X connect 38 0 35 0;
#X connect 39 0 16 0;
#X connect 40 0 39 0;
#X connect 41 0 114 0;
#X connect 42 0 43 0;
#X connect 43 0 44 0;
#X connect 44 0 16 0;
#X connect 47 0 12 0;
#X connect 49 0 47 0;
#X connect 50 0 51 0;
#X connect 51 0 55 0;
#X connect 53 0 52 0;
#X connect 54 0 51 0;
#X connect 56 0 47 0;
#X connect 57 0 60 0;
#X connect 58 0 60 0;
#X connect 60 0 59 0;
#X connect 62 0 11 0;
#X connect 63 0 11 0;
#X connect 64 0 65 0;
#X connect 65 0 66 0;
#X connect 67 0 69 0;
#X connect 68 0 69 0;
#X connect 69 0 70 0;
#X connect 71 0 65 0;
#X connect 72 0 73 0;
#X connect 74 0 75 0;
#X connect 76 0 77 0;
#X connect 78 0 79 0;
#X connect 80 0 81 0;
#X connect 81 0 82 0;
#X connect 83 0 80 0;
#X connect 83 0 84 0;
#X connect 84 0 85 0;
#X connect 86 0 87 0;
#X connect 86 0 117 0;
#X connect 86 0 148 0;
#X connect 86 0 149 0;
#X connect 86 0 150 0;
#X connect 86 0 151 0;
#X connect 88 0 89 0;
#X connect 90 0 91 0;
#X connect 92 0 93 0;
#X connect 92 0 90 0;
#X connect 93 0 88 0;
#X connect 94 0 95 0;
#X connect 96 0 97 0;
#X connect 98 0 99 0;
#X connect 98 0 96 0;
#X connect 99 0 94 0;
#X connect 100 0 101 0;
#X connect 102 0 103 0;
#X connect 104 0 105 0;
#X connect 104 0 102 0;
#X connect 105 0 100 0;
#X connect 107 0 108 0;
#X connect 109 0 110 0;
#X connect 110 0 111 0;
#X connect 111 0 107 0;
#X connect 113 0 109 0;
#X connect 114 0 115 0;
#X connect 116 0 41 0;
#X connect 119 0 120 0;
#X connect 121 0 122 0;
#X connect 122 0 119 0;
#X connect 124 0 126 0;
#X connect 124 0 125 0;
#X connect 125 0 127 0;
#X connect 125 0 133 0;
#X connect 125 0 137 0;
#X connect 125 0 141 0;
#X connect 126 0 125 0;
#X connect 127 0 130 0;
#X connect 128 0 129 0;
#X connect 130 0 128 0;
#X connect 131 0 132 0;
#X connect 133 0 134 0;
#X connect 134 0 131 0;
#X connect 135 0 136 0;
#X connect 137 0 138 0;
#X connect 138 0 135 0;
#X connect 139 0 140 0;
#X connect 141 0 142 0;
#X connect 142 0 139 0;
#X connect 144 0 145 0;
#X connect 146 0 147 0;
#X connect 147 0 144 0;
#X connect 148 0 123 0;
#X connect 149 0 118 0;
#X connect 150 0 112 0;
#X connect 151 0 143 0;
#X connect 153 0 155 0;
#X connect 156 0 0 0;
#X connect 157 0 156 0;
#X connect 159 0 160 0;
#X connect 161 0 162 0;
#X connect 163 0 164 0;
#X connect 164 0 161 0;
#X connect 166 0 167 0;
#X connect 168 0 172 0;
#X connect 168 0 175 0;
#X connect 168 0 176 0;
#X connect 168 0 187 0;
#X connect 168 0 188 0;
#X connect 168 0 190 0;
#X connect 168 0 196 0;
#X connect 168 0 203 0;
#X connect 169 0 170 0;
#X connect 171 0 173 0;
#X connect 173 0 169 0;
#X connect 175 0 174 0;
#X connect 176 0 177 0;
#X connect 178 0 179 0;
#X connect 180 0 181 0;
#X connect 181 0 178 0;
#X connect 183 0 184 0;
#X connect 185 0 186 0;
#X connect 186 0 183 0;
#X connect 187 0 182 0;
#X connect 188 0 189 0;
#X connect 190 0 191 0;
#X connect 192 0 193 0;
#X connect 194 0 195 0;
#X connect 195 0 192 0;
#X connect 196 0 197 0;
#X connect 199 0 200 0;
#X connect 201 0 202 0;
#X connect 202 0 199 0;
#X connect 203 0 198 0;
